<svg width="86" height="35" viewBox="0 0 86 35" fill="none" xmlns="http://www.w3.org/2000/svg">
<path opacity="0.9" d="M0.940918 0.725281V3.02065H17.355V0.725281H0.940918ZM19.6806 0.725281V3.02065H43.0715C43.0715 3.02065 40.6822 0.725281 37.5178 0.725281H19.6806ZM47.66 0.725281V3.02065H61.8111L60.9712 0.725281H47.66ZM71.9568 0.725281L71.1168 3.02065H85.1394V0.725281H71.9568ZM0.940918 5.1892V7.48457H17.355V5.1892H0.940918ZM19.6806 5.19248V7.48466H45.7857C45.7857 7.48466 45.4809 5.71803 44.949 5.19248H19.6806ZM47.66 5.19248V7.48466H63.3626L62.5852 5.19248H47.66ZM70.2768 5.19248L69.4994 7.48466H85.1394V5.19248H70.2768ZM5.65792 9.65313V11.9518H12.7664V9.65313H5.65792ZM24.3977 9.65313V11.9518H31.5062V9.65313H24.3977ZM38.4203 9.65313V11.9518H45.5288C45.5288 11.9518 45.9801 10.7379 45.9801 9.65313H38.4203ZM52.3771 9.65313V11.9518H64.98L64.1401 9.65313H52.3771ZM68.7286 9.65313L67.8854 11.9518H80.5509V9.65313H68.7286ZM5.65792 14.1204V16.4158H12.7664V14.1204H5.65792ZM24.3977 14.1204V16.4158H42.5543C42.5543 16.4158 44.0732 15.238 44.557 14.1204H24.3977ZM52.3771 14.1204V16.4158H59.4856V15.138L59.9369 16.4158H72.9582L73.4424 15.138V16.4158H80.5509V14.1204H67.2068L66.4986 16.0646L65.787 14.1204H52.3771ZM5.65792 18.5843V20.8797H12.7664V18.5843H5.65792ZM24.3977 18.5843V20.8797H44.557C44.0731 19.7658 42.5543 18.5843 42.5543 18.5843H24.3977ZM52.3771 18.5843V20.8797H59.4856V18.5843H52.3771ZM60.7768 18.5843L61.6366 20.8797H71.4L72.217 18.5843H60.7768ZM73.4423 18.5843V20.8797H80.5509V18.5843H73.4423ZM5.65792 23.0483V25.3435H12.7664V23.0483H5.65792ZM24.3977 23.0483V25.3435H31.5062V23.0483H24.3977ZM38.4203 23.0483V25.3435H45.9801C45.9801 24.2603 45.5287 23.0483 45.5287 23.0483H38.4203ZM52.3771 23.0483V25.3435H59.4856V23.0483H52.3771ZM62.3909 23.0483L63.2243 25.3435H69.7696L70.6095 23.0483H62.3909ZM73.4423 23.0483V25.3435H80.5509V23.0483H73.4423ZM1.06935 27.5122V29.8108H17.4834V27.5122H1.06935ZM19.6806 27.5122V29.8108H44.949C45.4809 29.2845 45.7857 27.5122 45.7857 27.5122H19.6806ZM47.7885 27.5122V29.8108H59.4856V27.5122H47.7885ZM64.0083 27.5122L64.8647 29.8108H68.1949L68.9986 27.5122H64.0083ZM73.4423 27.5122V29.8108H85.2679V27.5122H73.4423ZM1.06935 31.9794V34.2747H17.4834V31.9794H1.06935ZM19.6806 31.9794V34.2715H37.5178C40.6822 34.2715 43.0715 31.9794 43.0715 31.9794H19.6806ZM47.7885 31.9794V34.2747H59.4856V31.9794H47.7885ZM65.6322 31.9794L66.4558 34.2683L66.5974 34.2715L67.4341 31.9794H65.6322ZM73.4423 31.9794V34.2747H85.2679V31.9794H73.4423Z" fill="#1F70C1"/>
</svg>
